<svg width="1134" height="346" viewBox="0 0 1134 346" fill="none" xmlns="http://www.w3.org/2000/svg">
<g opacity="0.34">
<path d="M0 373.044C35.4325 373.044 35.4325 393 70.875 393C106.308 393 106.308 373.044 141.75 373.044C177.183 373.044 177.183 393 212.625 393C248.058 393 248.057 373.044 283.49 373.044C318.923 373.044 318.923 393 354.355 393C389.788 393 389.788 373.044 425.23 373.044C460.663 373.044 460.663 393 496.105 393C531.548 393 531.548 373.044 566.98 373.044C602.413 373.044 602.413 393 637.855 393C673.297 393 673.298 373.044 708.73 373.044C744.172 373.044 744.173 393 779.605 393C815.038 393 815.038 373.044 850.48 373.044C885.923 373.044 885.923 393 921.355 393C956.798 393 956.798 373.044 992.23 373.044C1027.67 373.044 1027.67 393 1063.11 393C1098.56 393 1098.56 373.044 1134 373.044" fill="#331414"/>
<path d="M0 331.705C35.4325 331.705 35.4325 351.662 70.875 351.662C106.308 351.662 106.308 331.705 141.75 331.705C177.183 331.705 177.183 351.662 212.625 351.662C248.058 351.662 248.057 331.705 283.49 331.705C318.923 331.705 318.923 351.662 354.355 351.662C389.788 351.662 389.788 331.705 425.23 331.705C460.663 331.705 460.663 351.662 496.105 351.662C531.548 351.662 531.548 331.705 566.98 331.705C602.413 331.705 602.413 351.662 637.855 351.662C673.297 351.662 673.298 331.705 708.73 331.705C744.172 331.705 744.173 351.662 779.605 351.662C815.038 351.662 815.038 331.705 850.48 331.705C885.923 331.705 885.923 351.662 921.355 351.662C956.798 351.662 956.798 331.705 992.23 331.705C1027.67 331.705 1027.67 351.662 1063.11 351.662C1098.56 351.662 1098.56 331.705 1134 331.705" fill="#331414"/>
<path d="M0 290.367C35.4325 290.367 35.4325 310.324 70.875 310.324C106.308 310.324 106.308 290.367 141.75 290.367C177.183 290.367 177.183 310.324 212.625 310.324C248.058 310.324 248.057 290.367 283.49 290.367C318.923 290.367 318.923 310.324 354.355 310.324C389.788 310.324 389.788 290.367 425.23 290.367C460.663 290.367 460.663 310.324 496.105 310.324C531.548 310.324 531.548 290.367 566.98 290.367C602.413 290.367 602.413 310.324 637.855 310.324C673.297 310.324 673.298 290.367 708.73 290.367C744.172 290.367 744.173 310.324 779.605 310.324C815.038 310.324 815.038 290.367 850.48 290.367C885.923 290.367 885.923 310.324 921.355 310.324C956.798 310.324 956.798 290.367 992.23 290.367C1027.67 290.367 1027.67 310.324 1063.11 310.324C1098.56 310.324 1098.56 290.367 1134 290.367" fill="#331414"/>
<path d="M0 249.029C35.4325 249.029 35.4325 268.985 70.875 268.985C106.308 268.985 106.308 249.029 141.75 249.029C177.183 249.029 177.183 268.985 212.625 268.985C248.058 268.985 248.057 249.029 283.49 249.029C318.923 249.029 318.923 268.985 354.355 268.985C389.788 268.985 389.788 249.029 425.23 249.029C460.663 249.029 460.663 268.985 496.105 268.985C531.548 268.985 531.548 249.029 566.98 249.029C602.413 249.029 602.413 268.985 637.855 268.985C673.297 268.985 673.298 249.029 708.73 249.029C744.172 249.029 744.173 268.985 779.605 268.985C815.038 268.985 815.038 249.029 850.48 249.029C885.923 249.029 885.923 268.985 921.355 268.985C956.798 268.985 956.798 249.029 992.23 249.029C1027.67 249.029 1027.67 268.985 1063.11 268.985C1098.56 268.985 1098.56 249.029 1134 249.029" fill="#331414"/>
<path d="M0 207.691C35.4325 207.691 35.4325 227.647 70.875 227.647C106.308 227.647 106.308 207.691 141.75 207.691C177.183 207.691 177.183 227.647 212.625 227.647C248.058 227.647 248.057 207.691 283.49 207.691C318.923 207.691 318.923 227.647 354.355 227.647C389.788 227.647 389.788 207.691 425.23 207.691C460.663 207.691 460.663 227.647 496.105 227.647C531.548 227.647 531.548 207.691 566.98 207.691C602.413 207.691 602.413 227.647 637.855 227.647C673.297 227.647 673.298 207.691 708.73 207.691C744.172 207.691 744.173 227.647 779.605 227.647C815.038 227.647 815.038 207.691 850.48 207.691C885.923 207.691 885.923 227.647 921.355 227.647C956.798 227.647 956.798 207.691 992.23 207.691C1027.67 207.691 1027.67 227.647 1063.11 227.647C1098.56 227.647 1098.56 207.691 1134 207.691" fill="#331414"/>
<path d="M0 166.353C35.4325 166.353 35.4325 186.309 70.875 186.309C106.308 186.309 106.308 166.353 141.75 166.353C177.183 166.353 177.183 186.309 212.625 186.309C248.058 186.309 248.057 166.353 283.49 166.353C318.923 166.353 318.923 186.309 354.355 186.309C389.788 186.309 389.788 166.353 425.23 166.353C460.663 166.353 460.663 186.309 496.105 186.309C531.548 186.309 531.548 166.353 566.98 166.353C602.413 166.353 602.413 186.309 637.855 186.309C673.297 186.309 673.298 166.353 708.73 166.353C744.172 166.353 744.173 186.309 779.605 186.309C815.038 186.309 815.038 166.353 850.48 166.353C885.923 166.353 885.923 186.309 921.355 186.309C956.798 186.309 956.798 166.353 992.23 166.353C1027.67 166.353 1027.67 186.309 1063.11 186.309C1098.56 186.309 1098.56 166.353 1134 166.353" fill="#331414"/>
<path d="M0 125.015C35.4325 125.015 35.4325 144.971 70.875 144.971C106.308 144.971 106.308 125.015 141.75 125.015C177.183 125.015 177.183 144.971 212.625 144.971C248.058 144.971 248.057 125.015 283.49 125.015C318.923 125.015 318.923 144.971 354.355 144.971C389.788 144.971 389.788 125.015 425.23 125.015C460.663 125.015 460.663 144.971 496.105 144.971C531.548 144.971 531.548 125.015 566.98 125.015C602.413 125.015 602.413 144.971 637.855 144.971C673.297 144.971 673.298 125.015 708.73 125.015C744.172 125.015 744.173 144.971 779.605 144.971C815.038 144.971 815.038 125.015 850.48 125.015C885.923 125.015 885.923 144.971 921.355 144.971C956.798 144.971 956.798 125.015 992.23 125.015C1027.67 125.015 1027.67 144.971 1063.11 144.971C1098.56 144.971 1098.56 125.015 1134 125.015" fill="#331414"/>
<path d="M0 83.6764C35.4325 83.6764 35.4325 103.633 70.875 103.633C106.308 103.633 106.308 83.6764 141.75 83.6764C177.183 83.6764 177.183 103.633 212.625 103.633C248.058 103.633 248.057 83.6764 283.49 83.6764C318.923 83.6764 318.923 103.633 354.355 103.633C389.788 103.633 389.788 83.6764 425.23 83.6764C460.663 83.6764 460.663 103.633 496.105 103.633C531.548 103.633 531.548 83.6764 566.98 83.6764C602.413 83.6764 602.413 103.633 637.855 103.633C673.297 103.633 673.298 83.6764 708.73 83.6764C744.172 83.6764 744.173 103.633 779.605 103.633C815.038 103.633 815.038 83.6764 850.48 83.6764C885.923 83.6764 885.923 103.633 921.355 103.633C956.798 103.633 956.798 83.6764 992.23 83.6764C1027.67 83.6764 1027.67 103.633 1063.11 103.633C1098.56 103.633 1098.56 83.6764 1134 83.6764" fill="#331414"/>
<path d="M0 42.3382C35.4325 42.3382 35.4325 62.2946 70.875 62.2946C106.308 62.2946 106.308 42.3382 141.75 42.3382C177.183 42.3382 177.183 62.2946 212.625 62.2946C248.058 62.2946 248.057 42.3382 283.49 42.3382C318.923 42.3382 318.923 62.2946 354.355 62.2946C389.788 62.2946 389.788 42.3382 425.23 42.3382C460.663 42.3382 460.663 62.2946 496.105 62.2946C531.548 62.2946 531.548 42.3382 566.98 42.3382C602.413 42.3382 602.413 62.2946 637.855 62.2946C673.297 62.2946 673.298 42.3382 708.73 42.3382C744.172 42.3382 744.173 62.2946 779.605 62.2946C815.038 62.2946 815.038 42.3382 850.48 42.3382C885.923 42.3382 885.923 62.2946 921.355 62.2946C956.798 62.2946 956.798 42.3382 992.23 42.3382C1027.67 42.3382 1027.67 62.2946 1063.11 62.2946C1098.56 62.2946 1098.56 42.3382 1134 42.3382" fill="#331414"/>
<path d="M0 1C35.4325 1 35.4325 20.9564 70.875 20.9564C106.308 20.9564 106.308 1 141.75 1C177.183 1 177.183 20.9564 212.625 20.9564C248.058 20.9564 248.057 1 283.49 1C318.923 1 318.923 20.9564 354.355 20.9564C389.788 20.9564 389.788 1 425.23 1C460.663 1 460.663 20.9564 496.105 20.9564C531.548 20.9564 531.548 1 566.98 1C602.413 1 602.413 20.9564 637.855 20.9564C673.297 20.9564 673.298 1 708.73 1C744.172 1 744.173 20.9564 779.605 20.9564C815.038 20.9564 815.038 1 850.48 1C885.923 1 885.923 20.9564 921.355 20.9564C956.798 20.9564 956.798 1 992.23 1C1027.67 1 1027.67 20.9564 1063.11 20.9564C1098.56 20.9564 1098.56 1 1134 1" fill="#331414"/>
<path d="M0 373.044C35.4325 373.044 35.4325 393 70.875 393C106.308 393 106.308 373.044 141.75 373.044C177.183 373.044 177.183 393 212.625 393C248.058 393 248.057 373.044 283.49 373.044C318.923 373.044 318.923 393 354.355 393C389.788 393 389.788 373.044 425.23 373.044C460.663 373.044 460.663 393 496.105 393C531.548 393 531.548 373.044 566.98 373.044C602.413 373.044 602.413 393 637.855 393C673.298 393 673.298 373.044 708.73 373.044C744.173 373.044 744.173 393 779.605 393C815.038 393 815.038 373.044 850.48 373.044C885.923 373.044 885.923 393 921.355 393C956.798 393 956.798 373.044 992.23 373.044C1027.67 373.044 1027.67 393 1063.11 393C1098.56 393 1098.56 373.044 1134 373.044M0 331.705C35.4325 331.705 35.4325 351.662 70.875 351.662C106.308 351.662 106.308 331.705 141.75 331.705C177.183 331.705 177.183 351.662 212.625 351.662C248.058 351.662 248.057 331.705 283.49 331.705C318.923 331.705 318.923 351.662 354.355 351.662C389.788 351.662 389.788 331.705 425.23 331.705C460.663 331.705 460.663 351.662 496.105 351.662C531.548 351.662 531.548 331.705 566.98 331.705C602.413 331.705 602.413 351.662 637.855 351.662C673.298 351.662 673.298 331.705 708.73 331.705C744.173 331.705 744.173 351.662 779.605 351.662C815.038 351.662 815.038 331.705 850.48 331.705C885.923 331.705 885.923 351.662 921.355 351.662C956.798 351.662 956.798 331.705 992.23 331.705C1027.67 331.705 1027.67 351.662 1063.11 351.662C1098.56 351.662 1098.56 331.705 1134 331.705M0 290.367C35.4325 290.367 35.4325 310.324 70.875 310.324C106.308 310.324 106.308 290.367 141.75 290.367C177.183 290.367 177.183 310.324 212.625 310.324C248.058 310.324 248.057 290.367 283.49 290.367C318.923 290.367 318.923 310.324 354.355 310.324C389.788 310.324 389.788 290.367 425.23 290.367C460.663 290.367 460.663 310.324 496.105 310.324C531.548 310.324 531.548 290.367 566.98 290.367C602.413 290.367 602.413 310.324 637.855 310.324C673.298 310.324 673.298 290.367 708.73 290.367C744.173 290.367 744.173 310.324 779.605 310.324C815.038 310.324 815.038 290.367 850.48 290.367C885.923 290.367 885.923 310.324 921.355 310.324C956.798 310.324 956.798 290.367 992.23 290.367C1027.67 290.367 1027.67 310.324 1063.11 310.324C1098.56 310.324 1098.56 290.367 1134 290.367M0 249.029C35.4325 249.029 35.4325 268.985 70.875 268.985C106.308 268.985 106.308 249.029 141.75 249.029C177.183 249.029 177.183 268.985 212.625 268.985C248.058 268.985 248.057 249.029 283.49 249.029C318.923 249.029 318.923 268.985 354.355 268.985C389.788 268.985 389.788 249.029 425.23 249.029C460.663 249.029 460.663 268.985 496.105 268.985C531.548 268.985 531.548 249.029 566.98 249.029C602.413 249.029 602.413 268.985 637.855 268.985C673.298 268.985 673.298 249.029 708.73 249.029C744.173 249.029 744.173 268.985 779.605 268.985C815.038 268.985 815.038 249.029 850.48 249.029C885.923 249.029 885.923 268.985 921.355 268.985C956.798 268.985 956.798 249.029 992.23 249.029C1027.67 249.029 1027.67 268.985 1063.11 268.985C1098.56 268.985 1098.56 249.029 1134 249.029M0 207.691C35.4325 207.691 35.4325 227.647 70.875 227.647C106.308 227.647 106.308 207.691 141.75 207.691C177.183 207.691 177.183 227.647 212.625 227.647C248.058 227.647 248.057 207.691 283.49 207.691C318.923 207.691 318.923 227.647 354.355 227.647C389.788 227.647 389.788 207.691 425.23 207.691C460.663 207.691 460.663 227.647 496.105 227.647C531.548 227.647 531.548 207.691 566.98 207.691C602.413 207.691 602.413 227.647 637.855 227.647C673.298 227.647 673.298 207.691 708.73 207.691C744.173 207.691 744.173 227.647 779.605 227.647C815.038 227.647 815.038 207.691 850.48 207.691C885.923 207.691 885.923 227.647 921.355 227.647C956.798 227.647 956.798 207.691 992.23 207.691C1027.67 207.691 1027.67 227.647 1063.11 227.647C1098.56 227.647 1098.56 207.691 1134 207.691M0 166.353C35.4325 166.353 35.4325 186.309 70.875 186.309C106.308 186.309 106.308 166.353 141.75 166.353C177.183 166.353 177.183 186.309 212.625 186.309C248.058 186.309 248.057 166.353 283.49 166.353C318.923 166.353 318.923 186.309 354.355 186.309C389.788 186.309 389.788 166.353 425.23 166.353C460.663 166.353 460.663 186.309 496.105 186.309C531.548 186.309 531.548 166.353 566.98 166.353C602.413 166.353 602.413 186.309 637.855 186.309C673.298 186.309 673.298 166.353 708.73 166.353C744.173 166.353 744.173 186.309 779.605 186.309C815.038 186.309 815.038 166.353 850.48 166.353C885.923 166.353 885.923 186.309 921.355 186.309C956.798 186.309 956.798 166.353 992.23 166.353C1027.67 166.353 1027.67 186.309 1063.11 186.309C1098.56 186.309 1098.56 166.353 1134 166.353M0 125.015C35.4325 125.015 35.4325 144.971 70.875 144.971C106.308 144.971 106.308 125.015 141.75 125.015C177.183 125.015 177.183 144.971 212.625 144.971C248.058 144.971 248.057 125.015 283.49 125.015C318.923 125.015 318.923 144.971 354.355 144.971C389.788 144.971 389.788 125.015 425.23 125.015C460.663 125.015 460.663 144.971 496.105 144.971C531.548 144.971 531.548 125.015 566.98 125.015C602.413 125.015 602.413 144.971 637.855 144.971C673.298 144.971 673.298 125.015 708.73 125.015C744.173 125.015 744.173 144.971 779.605 144.971C815.038 144.971 815.038 125.015 850.48 125.015C885.923 125.015 885.923 144.971 921.355 144.971C956.798 144.971 956.798 125.015 992.23 125.015C1027.67 125.015 1027.67 144.971 1063.11 144.971C1098.56 144.971 1098.56 125.015 1134 125.015M0 83.6764C35.4325 83.6764 35.4325 103.633 70.875 103.633C106.308 103.633 106.308 83.6764 141.75 83.6764C177.183 83.6764 177.183 103.633 212.625 103.633C248.058 103.633 248.057 83.6764 283.49 83.6764C318.923 83.6764 318.923 103.633 354.355 103.633C389.788 103.633 389.788 83.6764 425.23 83.6764C460.663 83.6764 460.663 103.633 496.105 103.633C531.548 103.633 531.548 83.6764 566.98 83.6764C602.413 83.6764 602.413 103.633 637.855 103.633C673.298 103.633 673.298 83.6764 708.73 83.6764C744.173 83.6764 744.173 103.633 779.605 103.633C815.038 103.633 815.038 83.6764 850.48 83.6764C885.923 83.6764 885.923 103.633 921.355 103.633C956.798 103.633 956.798 83.6764 992.23 83.6764C1027.67 83.6764 1027.67 103.633 1063.11 103.633C1098.56 103.633 1098.56 83.6764 1134 83.6764M0 42.3382C35.4325 42.3382 35.4325 62.2946 70.875 62.2946C106.308 62.2946 106.308 42.3382 141.75 42.3382C177.183 42.3382 177.183 62.2946 212.625 62.2946C248.058 62.2946 248.057 42.3382 283.49 42.3382C318.923 42.3382 318.923 62.2946 354.355 62.2946C389.788 62.2946 389.788 42.3382 425.23 42.3382C460.663 42.3382 460.663 62.2946 496.105 62.2946C531.548 62.2946 531.548 42.3382 566.98 42.3382C602.413 42.3382 602.413 62.2946 637.855 62.2946C673.298 62.2946 673.298 42.3382 708.73 42.3382C744.173 42.3382 744.173 62.2946 779.605 62.2946C815.038 62.2946 815.038 42.3382 850.48 42.3382C885.923 42.3382 885.923 62.2946 921.355 62.2946C956.798 62.2946 956.798 42.3382 992.23 42.3382C1027.67 42.3382 1027.67 62.2946 1063.11 62.2946C1098.56 62.2946 1098.56 42.3382 1134 42.3382M0 1C35.4325 1 35.4325 20.9564 70.875 20.9564C106.308 20.9564 106.308 1 141.75 1C177.183 1 177.183 20.9564 212.625 20.9564C248.058 20.9564 248.057 1 283.49 1C318.923 1 318.923 20.9564 354.355 20.9564C389.788 20.9564 389.788 1 425.23 1C460.663 1 460.663 20.9564 496.105 20.9564C531.548 20.9564 531.548 1 566.98 1C602.413 1 602.413 20.9564 637.855 20.9564C673.298 20.9564 673.298 1 708.73 1C744.173 1 744.173 20.9564 779.605 20.9564C815.038 20.9564 815.038 1 850.48 1C885.923 1 885.923 20.9564 921.355 20.9564C956.798 20.9564 956.798 1 992.23 1C1027.67 1 1027.67 20.9564 1063.11 20.9564C1098.56 20.9564 1098.56 1 1134 1" stroke="#B02020" stroke-miterlimit="10"/>
</g>
</svg>
